<svg xmlns="http://www.w3.org/2000/svg">
    <defs>
        <symbol id="checkbox-check" fill="currentColor">
            <path d="M1.5 7.5L5 11L13 2" stroke="white" stroke-width="3" stroke-linecap="round" stroke-linejoin="round"/>
        </symbol>
        <symbol id="radio-check" fill="currentColor">
            <rect width="18" height="18" rx="9"/>
        </symbol>
        <symbol id="success" fill="currentColor">
            <path d="M21 11.08V12C20.9988 14.1564 20.3005 16.2547 19.0093 17.9818C17.7182 19.709 15.9033 20.9725 13.8354 21.5839C11.7674 22.1953 9.55726 22.1219 7.53447 21.3746C5.51168 20.6273 3.78465 19.2461 2.61096 17.4371C1.43727 15.628 0.879791 13.4881 1.02168 11.3363C1.16356 9.18457 1.99721 7.13633 3.39828 5.49707C4.79935 3.85782 6.69279 2.71538 8.79619 2.24015C10.8996 1.76491 13.1003 1.98234 15.07 2.86" stroke="#374FC7" stroke-width="2" stroke-linecap="round" stroke-linejoin="round"/>
        </symbol>
    </defs>
</svg>
<svg width='22' height='23' viewBox='0 0 22 23' fill='none' xmlns='http://www.w3.org/2000/svg'><path d='M21 11.08V12C20.9988 14.1564 20.3005 16.2547 19.0093 17.9818C17.7182 19.709 15.9033 20.9725 13.8354 21.5839C11.7674 22.1953 9.55726 22.1219 7.53447 21.3746C5.51168 20.6273 3.78465 19.2461 2.61096 17.4371C1.43727 15.628 0.879791 13.4881 1.02168 11.3363C1.16356 9.18457 1.99721 7.13633 3.39828 5.49707C4.79935 3.85782 6.69279 2.71538 8.79619 2.24015C10.8996 1.76491 13.1003 1.98234 15.07 2.86' stroke='#374FC7' stroke-width='2' stroke-linecap='round' stroke-linejoin='round'/></svg>
